<svg xmlns="http://www.w3.org/2000/svg" version="1.1" xmlns:xlink="http://www.w3.org/1999/xlink" width="584.66" height="472.41"><svg xmlns="http://www.w3.org/2000/svg" version="1.1" viewBox="213.34 275.62 584.66 472.41">

<path d="M0 0 C3.26846144 -0.00917261 6.53687067 -0.02324023 9.8053093 -0.03840637 C15.02423944 -0.06114743 20.24294663 -0.06698992 25.46191978 -0.06049919 C27.40508018 -0.06017994 29.34824881 -0.0647558 31.29138374 -0.07470894 C56.11886641 -0.18963047 78.86742531 4.70511053 98.16447067 21.30326843 C98.77806442 21.77248718 99.39165817 22.24170593 100.02384567 22.72514343 C111.66251833 31.80117257 117.75490645 45.69109125 124.03947067 58.61576843 C124.92653326 60.41702191 125.81456209 62.21779984 126.70353317 64.01811218 C131.67995692 74.11809172 136.59322076 84.24991684 141.40592575 94.42900085 C145.23469178 102.51976188 149.24223416 110.51803003 153.2836113 118.50444031 C153.76120895 119.45125671 154.23880661 120.39807312 154.73087692 121.37358093 C155.15312546 122.20647644 155.57537399 123.03937195 156.01041794 123.89750671 C157.92381877 127.88622086 159.46091729 131.34143638 159.53947067 135.80326843 C159.56783005 136.53545593 159.59618942 137.26764343 159.62540817 138.02201843 C158.95661136 141.33199586 157.4738556 142.84106677 155.16447067 145.30326843 C152.68724644 146.73596201 150.33618733 147.95512297 147.74259567 149.12358093 C147.01441132 149.46403442 146.28622696 149.80448792 145.53597641 150.15525818 C143.1677221 151.25878577 140.7914989 152.34378634 138.41447067 153.42826843 C136.76694139 154.19042554 135.11989005 154.95361662 133.47330856 155.71781921 C130.20255195 157.23329537 126.92851694 158.7412969 123.65128708 160.24272156 C119.8897078 161.96698878 116.13973233 163.714657 112.39493942 165.47514343 C101.90063784 170.38973744 91.29698205 175.03194249 80.60197067 179.49076843 C79.46493698 179.97336121 78.32790329 180.45595398 77.15641403 180.95317078 C66.23174689 185.43150368 66.23174689 185.43150368 61.16447067 184.30326843 C56.60749794 179.68680881 54.24930915 174.65244929 51.73087692 168.73295593 C51.13024681 167.35673569 51.13024681 167.35673569 50.51748276 165.95271301 C49.24454761 163.03188759 47.98511623 160.10549098 46.72697067 157.17826843 C33.39462541 123.84453555 33.39462541 123.84453555 5.93790817 102.34623718 C-0.58994425 99.89139691 -6.0031772 98.96989273 -12.94490433 99.03764343 C-13.88090469 99.04286011 -14.81690506 99.04807678 -15.78126907 99.05345154 C-30.70641985 99.25059118 -45.61168008 100.38976243 -60.50048065 101.38185883 C-64.00096165 101.61396899 -67.50177717 101.84079505 -71.00260639 102.06758308 C-82.28122408 102.7982707 -93.55860283 103.54697148 -104.83552933 104.30326843 C-105.58450737 104.35345627 -106.33348541 104.4036441 -107.10515976 104.45535278 C-124.6430386 105.63101704 -142.1783289 106.84221564 -159.71175003 108.08256531 C-162.79266231 108.30023977 -165.87365105 108.51679627 -168.95466995 108.73295593 C-195.55174717 110.57102395 -195.55174717 110.57102395 -222.12288284 112.74516296 C-224.69281798 112.96471827 -227.26120761 113.1438753 -229.83552933 113.30326843 C-230.82182327 113.37755066 -231.80811722 113.45183289 -232.82429886 113.52836609 C-233.80898148 113.57396667 -234.79366409 113.61956726 -235.80818558 113.66654968 C-236.69900833 113.71722595 -237.58983109 113.76790222 -238.50764847 113.82011414 C-240.83552933 113.30326843 -240.83552933 113.30326843 -242.45477676 111.32556152 C-244.30871345 107.26752812 -244.2710605 103.84112867 -244.2554512 99.42973328 C-244.26392075 98.5462471 -244.27239029 97.66276093 -244.28111649 96.75250244 C-244.3044687 93.8395896 -244.30550937 90.92720519 -244.30427933 88.01420593 C-244.31137982 85.98829436 -244.31907865 83.96238479 -244.32735062 81.93647766 C-244.34078976 77.69475202 -244.34236574 73.45321252 -244.33650589 69.21147156 C-244.33059745 63.76908817 -244.36125143 58.32759305 -244.40162277 52.8853817 C-244.42743146 48.70412869 -244.43038365 44.52309186 -244.42673111 40.34177017 C-244.42842746 38.33464441 -244.43811916 36.32750921 -244.4558754 34.32046127 C-244.47794011 31.51903351 -244.46842897 28.71943447 -244.4507637 25.91801453 C-244.46402695 25.08573837 -244.47729019 24.25346222 -244.49095535 23.39596558 C-244.45698929 21.08509827 -244.45698929 21.08509827 -243.83552933 17.30326843 C-240.28232594 13.93712791 -236.226971 13.71106347 -231.48421097 13.20121765 C-230.78170999 13.12324385 -230.079209 13.04527004 -229.35542011 12.9649334 C-227.18336816 12.72919447 -225.01024818 12.51286241 -222.83552933 12.30326843 C-221.57231857 12.18034424 -220.30910782 12.05742004 -219.00761795 11.93077087 C-215.15893578 11.57756853 -211.30847804 11.25214994 -207.45662308 10.93608093 C-206.01606263 10.8155073 -204.57552157 10.69470188 -203.13499832 10.57368469 C-199.30716796 10.25324345 -195.47896988 9.93745165 -191.65061188 9.62338257 C-189.24954412 9.42634114 -186.84854582 9.22847061 -184.44755936 9.03044128 C-173.24467068 8.10736152 -162.04055056 7.20007019 -150.83552933 6.30326843 C-150.14711456 6.24808548 -149.4586998 6.19290253 -148.74942398 6.13604736 C-131.11984814 4.7237566 -113.48604953 3.42502653 -95.83552933 2.30326843 C-94.90353714 2.2426825 -93.97154495 2.18209656 -93.01131058 2.11967468 C-62.03854627 0.12286323 -31.02499783 0.07271375 0 0 Z " fill="#EA6917" transform="translate(457.8355293273926,275.6967315673828)" data-index="1" style="visibility: visible; opacity: 1;"></path>
<path d="M0 0 C3.69261476 0.57473237 6.36365055 1.56695974 9.5625 3.484375 C10.43124756 4.0009668 11.29999512 4.51755859 12.19506836 5.04980469 C13.1206958 5.61086914 14.04632324 6.17193359 15 6.75 C16.45128296 7.61866699 16.45128296 7.61866699 17.93188477 8.50488281 C26.40715905 13.59541018 34.81002081 18.80284734 43.203125 24.02734375 C47.17467846 26.49595813 51.16933929 28.92069684 55.1875 31.3125 C70.92570729 40.69203715 86.46083039 50.4172987 102.0324707 60.06982422 C107.84781122 63.67302885 113.6730184 67.25989742 119.50195312 70.84106445 C130.18722384 77.40588675 140.84320117 84.01449117 151.4699707 90.67358398 C160.27204019 96.18384666 169.12418283 101.60951003 178 107 C173.94945262 99.3709127 169.61188334 91.98929393 165 84.6875 C164.34700928 83.64843506 163.69401855 82.60937012 163.02124023 81.53881836 C158.71946404 74.70213173 154.39619076 67.87899548 150.0625 61.0625 C149.225979 59.74644775 149.225979 59.74644775 148.37255859 58.40380859 C145.502202 53.89743836 142.61636498 49.40188126 139.70402527 44.92250061 C138.20595753 42.6171983 136.71273125 40.30877746 135.21969604 38.00021362 C134.1437284 36.34137392 133.06032948 34.68736195 131.97680664 33.03344727 C131.32703857 32.02854248 130.67727051 31.0236377 130.0078125 29.98828125 C129.13600342 28.65083862 129.13600342 28.65083862 128.24658203 27.28637695 C127 25 127 25 127 22 C131.83182 23.51107479 134.9254897 26.25921973 138.625 29.5625 C139.8714641 30.65471008 141.11887009 31.74584611 142.3671875 32.8359375 C143.28902832 33.64369629 143.28902832 33.64369629 144.22949219 34.46777344 C146.69093013 36.59794229 149.21604695 38.64445523 151.75 40.6875 C156.12507747 44.23745321 160.30549192 47.95563821 164.46875 51.75 C167.0884481 54.07862053 169.7751531 56.29562947 172.5 58.5 C176.96420457 62.11149134 181.23002114 65.88660694 185.47265625 69.75390625 C188.06962393 72.06187598 190.73404013 74.25555863 193.4375 76.4375 C198.26804859 80.34696941 202.87113095 84.45527831 207.4453125 88.66015625 C209.62697815 90.65834848 211.83011309 92.62148889 214.0625 94.5625 C215.3750423 95.70828488 216.6875397 96.8541212 218 98 C218.8146875 98.70898438 219.629375 99.41796875 220.46875 100.1484375 C234.2194423 112.28383763 238.62900121 122.2863969 242.75 140.125 C243.06830212 141.47672948 243.38730801 142.82829345 243.70703125 144.1796875 C244.47826108 147.45157164 245.24239848 150.72493846 246 154 C243 155 243 155 239.90551758 153.64477539 C238.64627032 152.97276497 237.39292848 152.28961435 236.14453125 151.59765625 C235.48289474 151.24110458 234.82125824 150.88455292 234.13957214 150.51719666 C232.02530071 149.37501911 229.91896314 148.21900368 227.8125 147.0625 C226.38135947 146.28618674 224.94972443 145.51078437 223.51757812 144.73632812 C220.00589103 142.83474509 216.50125615 140.92071616 213 139 C214.11743231 142.35229693 215.59340984 144.26444233 217.75 147.0625 C222.47149284 153.24507954 227.02721524 159.54059436 231.56933594 165.85571289 C232.10075195 166.59426514 232.63216797 167.33281738 233.1796875 168.09375 C233.65132324 168.75052734 234.12295898 169.40730469 234.60888672 170.08398438 C235.59181966 171.43780286 236.61928571 172.75981108 237.67626953 174.05664062 C239 176 239 176 239 179 C232.67200281 178.37501752 226.52242055 177.41506693 220.29296875 176.15234375 C219.40515213 175.97619034 218.51733551 175.80003693 217.60261536 175.61854553 C214.79685157 175.06176585 211.99207217 174.50024922 209.1875 173.9375 C205.47350078 173.1922932 201.75856711 172.45203084 198.04296875 171.71484375 C196.77104927 171.45706398 196.77104927 171.45706398 195.47343445 171.19407654 C194.68193497 171.03713821 193.89043549 170.88019989 193.07495117 170.71850586 C192.38261887 170.57940292 191.69028656 170.44029999 190.97697449 170.29698181 C188.67392316 169.90096429 188.67392316 169.90096429 185 170 C185.75804932 170.41660889 186.51609863 170.83321777 187.29711914 171.26245117 C203.92414536 180.40524709 220.50739718 189.61606748 237 199 C237 199.66 237 200.32 237 201 C219.81609149 203.94608354 202.61785573 206.69785586 185.36376953 209.19848633 C183.92480114 209.40703936 182.48583626 209.61561654 181.046875 209.82421875 C179.99794571 209.97619469 179.99794571 209.97619469 178.92782593 210.13124084 C173.918017 210.85969302 168.91554594 211.6281658 163.91479492 212.41601562 C151.04306112 214.44289054 138.14594606 216.28223375 125.24291992 218.09747314 C123.08427953 218.40116398 120.92574582 218.70561432 118.76733398 219.01092529 C106.98316538 220.67559737 95.19152641 222.26452701 83.37890625 223.71484375 C82.34160873 223.84468155 81.30431122 223.97451935 80.23558044 224.10829163 C75.11525998 224.72465802 70.1571886 225.14853498 65 225 C64.67 224.01 64.34 223.02 64 222 C79.8161024 215.32242043 95.6516312 208.69895395 111.5625 202.25 C112.90047326 201.70703435 114.23844528 201.16406562 115.57641602 200.62109375 C121.66762239 198.15097084 127.76337335 195.69275871 133.8671875 193.25390625 C134.90157959 192.83786133 135.93597168 192.42181641 137.00170898 191.99316406 C138.90517395 191.22766248 140.81082108 190.46755619 142.71899414 189.71386719 C143.54262451 189.38161133 144.36625488 189.04935547 145.21484375 188.70703125 C145.92761475 188.4231958 146.64038574 188.13936035 147.37475586 187.84692383 C149.19389694 187.10097552 149.19389694 187.10097552 150 185 C149.01346436 184.89075195 148.02692871 184.78150391 147.01049805 184.66894531 C142.75022203 184.05538764 138.87251087 182.74568534 134.83203125 181.296875 C134.05311523 181.0233168 133.27419922 180.74975861 132.47167969 180.46791077 C129.91628657 179.56840167 127.36438748 178.65940216 124.8125 177.75 C123.00169436 177.10985099 121.19073814 176.47012779 119.37963867 175.83081055 C106.74030907 171.36139938 94.12308861 166.8295905 81.52124023 162.25561523 C72.31635362 158.91511126 63.10181583 155.60295334 53.87890625 152.3125 C51.54255144 151.47813787 49.20620711 150.6437464 46.86987305 149.80932617 C43.43134518 148.58135494 39.99251073 147.35429443 36.55239868 146.13076782 C24.18424006 141.73129961 11.84827701 137.25137364 -0.4296875 132.60546875 C-2.10214035 131.98180168 -2.10214035 131.98180168 -3.80838013 131.34553528 C-5.35318558 130.75526802 -5.35318558 130.75526802 -6.92919922 130.15307617 C-7.83805878 129.80911301 -8.74691833 129.46514984 -9.68331909 129.11076355 C-11.98600945 128.00670796 -13.33994931 126.91592896 -15 125 C-14.505 124.505 -14.505 124.505 -14 124 C-2.15476167 124.15275642 9.76300864 126.09766635 21.5 127.5625 C23.63247583 127.82626206 25.76496313 128.08993136 27.89746094 128.35351562 C67.84330766 133.30750316 107.75790882 138.51974516 147.65234375 143.87109375 C148.40351974 143.97175644 149.15469574 144.07241913 149.92863464 144.1761322 C154.28902209 144.76274276 158.64541784 145.37210345 163 146 C161.89062424 144.89062424 160.78045635 143.78203643 159.66796875 142.67578125 C158.45200022 141.45411732 157.2478197 140.22068694 156.05078125 138.98046875 C151.25553384 134.06469447 146.24526338 129.67263763 140.88671875 125.3828125 C137.82196341 122.85304152 134.90624895 120.20787179 132 117.5 C128.26695313 114.02558409 124.47626425 110.69929307 120.5 107.5 C115.38754015 103.38347389 110.57423446 99.0077116 105.76171875 94.55078125 C101.18829061 90.32666728 96.48329319 86.26567752 91.75 82.22265625 C90.54162052 81.19015817 89.3332885 80.15760454 88.125 79.125 C87.5163208 78.60518555 86.9076416 78.08537109 86.28051758 77.54980469 C82.74337942 74.52081344 79.25590469 71.44835977 75.8125 68.3125 C72.4991692 65.30185521 69.11058071 62.43434822 65.625 59.625 C61.07139288 55.94363311 56.76417484 52.07225527 52.48095703 48.08642578 C49.24823796 45.09587359 45.93312334 42.26228315 42.5 39.5 C37.98222187 35.86500611 33.72181484 32.0328971 29.48046875 28.0859375 C25.4046847 24.31557396 21.14484565 20.8216227 16.81640625 17.34375 C13.04766958 14.20749202 9.45737296 10.89553405 5.8828125 7.54101562 C3.160713 4.96889661 3.160713 4.96889661 0 3 C0 2.01 0 1.02 0 0 Z " fill="#EA6817" transform="translate(371,523)" data-index="2" style="visibility: visible; opacity: 1;"></path>
<path d="M0 0 C3.52610557 4.56876636 5.62176369 9.46736936 7.75 14.80078125 C8.08999023 15.63659225 8.42998047 16.47240326 8.78027344 17.33354187 C9.85980762 19.99069592 10.93024773 22.65139469 12 25.3125 C13.0715537 27.96212928 14.14501046 30.61097505 15.21972656 33.25932312 C15.88537512 34.90133182 16.54893512 36.54418944 17.20996094 38.18806458 C19.10061272 42.87138934 21.09197699 47.4909292 23.2019043 52.08000183 C24.26297534 54.63264615 24.69572787 56.2943916 24 59 C19.74854792 63.54465567 13.45907151 66.13183634 8 69 C9.3265233 75.44132211 11.06126714 81.5661839 13.1875 87.78515625 C13.49067139 88.68568222 13.79384277 89.58620819 14.10620117 90.51402283 C15.0664517 93.36500603 16.03267311 96.21391074 17 99.0625 C17.96679373 101.91483125 18.93216317 104.76761423 19.89379883 107.62168884 C20.48946716 109.38915415 21.08808327 111.1556298 21.69018555 112.9209137 C24.2034608 120.37043135 26.12093553 127.52772083 26.81640625 135.40234375 C26.87779282 136.0831752 26.93917938 136.76400665 27.00242615 137.46546936 C27.13050218 138.89964868 27.25555264 140.33410118 27.37768555 141.76879883 C27.55946308 143.90186338 27.75052067 146.03392569 27.94335938 148.16601562 C28.32481672 152.44183097 28.66657643 156.72020961 29 161 C29.15227051 162.8718396 29.15227051 162.8718396 29.30761719 164.78149414 C30.24372464 177.99943127 30.15276597 191.23272286 30.13037109 204.4777832 C30.12462283 207.90343892 30.12800021 211.32901713 30.13394356 214.75467014 C30.13844034 218.06692162 30.13528798 221.37915258 30.1328125 224.69140625 C30.13483673 225.9092128 30.13686096 227.12701935 30.13894653 228.38172913 C30.09348473 244.90651527 30.09348473 244.90651527 28 247 C26.00041636 247.04080783 23.99954746 247.04254356 22 247 C19.12947759 239.26896111 17.50225126 231.36854873 15.86987305 223.30987549 C15.01084432 219.08328038 14.12629989 214.86203286 13.2421875 210.640625 C12.9676474 209.32918015 12.9676474 209.32918015 12.68756104 207.99124146 C5.59988539 174.23839894 -2.89287861 142.7753551 -17.42675781 111.39794922 C-19.74925556 106.38172891 -22.03375265 101.3487036 -24.3125 96.3125 C-24.69140381 95.48717773 -25.07030762 94.66185547 -25.46069336 93.81152344 C-28 88.22492817 -28 88.22492817 -28 86 C-29.42892578 86.57621094 -29.42892578 86.57621094 -30.88671875 87.1640625 C-32.15330322 87.65193207 -33.42024988 88.13886209 -34.6875 88.625 C-35.31333984 88.88023437 -35.93917969 89.13546875 -36.58398438 89.3984375 C-39.59939135 90.53513542 -41.58996098 91.08906348 -44.76953125 90.3984375 C-48.81466894 87.8622566 -50.43065079 84.34478308 -52.09375 79.984375 C-52.47942139 78.99147461 -52.86509277 77.99857422 -53.26245117 76.97558594 C-53.67084229 75.91114258 -54.0792334 74.84669922 -54.5 73.75 C-58.47848813 63.52196073 -62.8422205 53.55628995 -67.68359375 43.70605469 C-68.1321875 42.76665039 -68.58078125 41.82724609 -69.04296875 40.859375 C-69.44539795 40.03920898 -69.84782715 39.21904297 -70.26245117 38.37402344 C-71.16855921 35.45744133 -71.00582673 33.87131914 -70 31 C-64.5862318 25.5332029 -55.40424319 23.14511415 -48.4375 20.375 C-38.82533881 16.49348418 -29.34516133 12.43456859 -20 7.9375 C-18.58738892 7.25856689 -18.58738892 7.25856689 -17.14624023 6.56591797 C-2.48478038 -0.57341086 -2.48478038 -0.57341086 0 0 Z " fill="#EA6817" transform="translate(614,444)" data-index="3" style="visibility: visible; opacity: 1;"></path>
<path d="M0 0 C0.99 0.33 1.98 0.66 3 1 C1.52216711 5.01205637 -0.38995177 8.55530721 -2.5625 12.234375 C-2.90966064 12.82450378 -3.25682129 13.41463257 -3.61450195 14.02264404 C-4.73975082 15.93370047 -5.86984128 17.84184383 -7 19.75 C-7.78418529 21.07988293 -8.56803758 22.40996227 -9.3515625 23.74023438 C-10.88748478 26.34679329 -12.42518905 28.95228466 -13.96484375 31.55664062 C-15.94889372 34.91353131 -17.92798825 38.27327228 -19.90380859 41.63500977 C-20.64054074 42.88843891 -21.37785473 44.14152623 -22.11572266 45.39428711 C-24.73859386 49.84814727 -27.351342 54.30788255 -29.9609375 58.76953125 C-38.22564486 72.89627772 -46.53604328 86.99125468 -55 101 C-54.11099251 100.62180115 -54.11099251 100.62180115 -53.20402527 100.23596191 C-46.85568428 97.60675542 -40.49528033 95.61783812 -33.86328125 93.84375 C-24.66068932 91.32477605 -15.49823447 88.69342662 -6.36150742 85.94665527 C-4.35647221 85.34405159 -2.35083572 84.743492 -0.34500122 84.14355469 C5.10835152 82.51194088 10.56144186 80.87962059 16.00952148 79.23046875 C19.40741377 78.20226438 22.8080944 77.18381114 26.21085167 76.17182922 C28.10525276 75.60549242 29.99649507 75.02862355 31.88764954 74.45153809 C33.02792099 74.11368286 34.16819244 73.77582764 35.34301758 73.42773438 C36.34238846 73.12685913 37.34175934 72.82598389 38.37141418 72.51599121 C41.02923844 71.9942605 42.47932479 72.09789164 45 73 C43.50994084 77.41057512 40.18443605 79.02497818 36.375 81.25 C29.48761672 85.41787105 22.74891496 89.76693508 16.0625 94.25 C15.07088867 94.91386719 14.07927734 95.57773437 13.05761719 96.26171875 C10.89855315 97.70777712 8.7398803 99.15441969 6.58154297 100.6015625 C2.64316508 103.24062923 -1.30114565 105.87076819 -5.24609375 108.5 C-5.95408112 108.97188751 -6.66206848 109.44377502 -7.39151001 109.92996216 C-10.97735853 112.31969932 -14.56370582 114.70868617 -18.15039062 117.09716797 C-24.12140978 121.07439985 -30.09031146 125.05399455 -36.03515625 129.0703125 C-36.88416504 129.64233398 -37.73317383 130.21435547 -38.60791016 130.80371094 C-40.10890045 131.81611647 -41.60747207 132.83212187 -43.10302734 133.85253906 C-47.77678151 137 -47.77678151 137 -50 137 C-50 137.66 -50 138.32 -50 139 C-48.67911377 139.30043213 -48.67911377 139.30043213 -47.33154297 139.60693359 C-33.8637963 142.70689753 -20.48294282 146.14823322 -7.10205078 149.60058594 C-3.75348274 150.46419008 -0.40313295 151.3206723 2.94762993 152.17571449 C6.17210376 153.00017902 9.39449559 153.83266037 12.6171875 154.6640625 C13.81705292 154.9692984 15.01691833 155.2745343 16.25314331 155.58901978 C17.35924957 155.87626923 18.46535583 156.16351868 19.60498047 156.45947266 C20.57740692 156.70944 21.54983337 156.95940735 22.55172729 157.21694946 C25 158 25 158 28 160 C27.67 160.99 27.34 161.98 27 163 C26.10925781 163.14695312 25.21851563 163.29390625 24.30078125 163.4453125 C14.77677531 165.05586195 5.32711602 166.94901807 -4.125 168.9375 C-16.70517227 171.58060027 -29.31670075 173.9108095 -42 176 C-37.84298943 180.83769515 -33.61358072 185.5307506 -29.0625 190 C-28.56943359 190.48855469 -28.07636719 190.97710938 -27.56835938 191.48046875 C-26.38126771 192.65603525 -25.19099502 193.82838826 -24 195 C-24.33 195.99 -24.66 196.98 -25 198 C-46.09479567 191.13350804 -66.56312555 182.58899893 -87 174 C-87 173.01 -87 172.02 -87 171 C-85.49373047 170.43732422 -85.49373047 170.43732422 -83.95703125 169.86328125 C-75.28693089 166.62051041 -66.63289678 163.34081279 -58 160 C-64.02601572 158.12055733 -70.09773959 157.01069894 -76.3125 155.9375 C-78.28825198 155.5952738 -80.26354037 155.25035683 -82.23828125 154.90234375 C-83.10493408 154.75273193 -83.97158691 154.60312012 -84.86450195 154.44897461 C-87 154 -87 154 -89 153 C-88.41928199 148.85857603 -87.04630466 146.04963224 -84.83984375 142.515625 C-84.21142578 141.49855469 -83.58300781 140.48148438 -82.93554688 139.43359375 C-82.27619141 138.38300781 -81.61683594 137.33242188 -80.9375 136.25 C-79.63235809 134.15213341 -78.32887573 132.05323313 -77.02734375 129.953125 C-76.15710571 128.56335449 -76.15710571 128.56335449 -75.26928711 127.14550781 C-73.9151381 125.27203055 -73.9151381 125.27203055 -74 124 C-74.70346558 124.45439453 -74.70346558 124.45439453 -75.42114258 124.91796875 C-77.54715884 126.28568922 -79.67967934 127.64291721 -81.8125 129 C-82.91948242 129.71542969 -82.91948242 129.71542969 -84.04882812 130.4453125 C-84.76103516 130.89648438 -85.47324219 131.34765625 -86.20703125 131.8125 C-87.18893433 132.44091797 -87.18893433 132.44091797 -88.19067383 133.08203125 C-90 134 -90 134 -93 134 C-93.06045705 127.17858459 -93.04675944 120.36004957 -92.99902344 113.53857422 C-92.99999335 110.02408166 -93.07840759 106.51723419 -93.1640625 103.00390625 C-93.37531196 84.18264921 -93.37531196 84.18264921 -88.40136719 78.64526367 C-86.08128552 76.53296784 -83.59636853 74.75534055 -81 73 C-79.62924281 71.81052048 -78.27308153 70.60384449 -76.9375 69.375 C-76.30199219 68.83101562 -75.66648437 68.28703125 -75.01171875 67.7265625 C-68.35056491 62.00961105 -61.92038285 56.02164337 -55.45751953 50.08251953 C-52.36471877 47.24275712 -49.25353933 44.42529914 -46.125 41.625 C-41.9963599 37.92254211 -37.93124703 34.15621997 -33.875 30.375 C-27.89139989 24.80430792 -21.80697737 19.38971006 -15.58203125 14.08984375 C-14.96263672 13.56140869 -14.34324219 13.03297363 -13.70507812 12.48852539 C-12.47516399 11.43995695 -11.24348754 10.39345086 -10.00976562 9.34936523 C-6.5110484 6.36946733 -3.2044387 3.29495956 0 0 Z " fill="#EA6817" transform="translate(753,550)" data-index="4" style="visibility: visible;"></path>
<path d="M0 0 C2.64 0.66 5.28 1.32 8 2 C8 3.32 8 4.64 8 6 C5.93827387 6.33808686 3.8755797 6.67027361 1.8125 7 C0.08966797 7.2784375 0.08966797 7.2784375 -1.66796875 7.5625 C-4.50415393 7.93489477 -7.14719564 8.08596021 -10 8 C-9.443125 7.7525 -8.88625 7.505 -8.3125 7.25 C-4.95956419 5.43760226 -1.73442754 3.46885508 0 0 Z " fill="#EA5C11" transform="translate(772,707)" data-index="5" style="visibility: visible;"></path>
<path d="M0 0 C0.66 0.33 1.32 0.66 2 1 C1.67 1.33 1.34 1.66 1 2 C1.639375 2.28875 2.27875 2.5775 2.9375 2.875 C5 4 5 4 6 6 C0.06 6.33 -5.88 6.66 -12 7 C-12.33 6.01 -12.66 5.02 -13 4 C-7.49445005 1.8728557 -7.49445005 1.8728557 -4.8125 2.5625 C-3.9153125 2.7790625 -3.9153125 2.7790625 -3 3 C-1.22809091 1.64555699 -1.22809091 1.64555699 0 0 Z " fill="#EC7222" transform="translate(448,741)" data-index="6" style="visibility: visible;"></path>
<path d="M0 0 C5.40489519 1.52012677 8.98492628 5.27385218 13 9 C11.33333333 9 9.66666667 9 8 9 C7.67 9.66 7.34 10.32 7 11 C7.66 11.33 8.32 11.66 9 12 C8.67 12.99 8.34 13.98 8 15 C6.65828736 13.06829319 5.32687117 11.12943124 4 9.1875 C3.2575 8.10855469 2.515 7.02960937 1.75 5.91796875 C0 3 0 3 0 0 Z " fill="#EA5E10" transform="translate(498,545)" data-index="7" style="visibility: visible;"></path>
<path d="M0 0 C0.33 0.99 0.66 1.98 1 3 C5.95 3 10.9 3 16 3 C16 3.33 16 3.66 16 4 C6.98185679 5.14516104 -1.9280648 5.09471858 -11 5 C-11 4.67 -11 4.34 -11 4 C-7.92382812 3.70703125 -7.92382812 3.70703125 -4.84765625 3.4140625 C-4.23792969 3.27742188 -3.62820313 3.14078125 -3 3 C-2.67 2.34 -2.34 1.68 -2 1 C-1.34 0.67 -0.68 0.34 0 0 Z " fill="#E85209" transform="translate(317,377)" data-index="8" style="visibility: visible;"></path>
<path d="M0 0 C3.18127756 1.31639071 6.06678928 3.20748233 9 5 C8.67 5.99 8.34 6.98 8 8 C4.66666667 6.33333333 1.33333333 4.66666667 -2 3 C-2 2.34 -2 1.68 -2 1 C-1.34 0.67 -0.68 0.34 0 0 Z " fill="#EC6D24" transform="translate(720,740)" data-index="9" style="visibility: visible;"></path>
<path d="M0 0 C1.32 1.32 2.64 2.64 4 4 C3.01 4.495 3.01 4.495 2 5 C2 5.99 2 6.98 2 8 C3.65 8.33 5.3 8.66 7 9 C7 9.66 7 10.32 7 11 C5.35 11 3.7 11 2 11 C0.19769832 7.17010894 -0.19622241 4.21878192 0 0 Z " fill="#E85C10" transform="translate(634,680)" data-index="10" style="visibility: visible;"></path>
<path d="M0 0 C4.82976947 0.3577607 6.4833494 0.4833494 10 4 C6.7 4.33 3.4 4.66 0 5 C-0.33 3.68 -0.66 2.36 -1 1 C-0.67 0.67 -0.34 0.34 0 0 Z " fill="#E95F0E" transform="translate(711,720)" data-index="11" style="visibility: visible;"></path>
<path d="M0 0 C0.33 0.99 0.66 1.98 1 3 C1.66 3.33 2.32 3.66 3 4 C3 4.66 3 5.32 3 6 C1.18674449 5.88648483 -0.62563357 5.75887039 -2.4375 5.625 C-3.95150391 5.52058594 -3.95150391 5.52058594 -5.49609375 5.4140625 C-6.32238281 5.27742187 -7.14867187 5.14078125 -8 5 C-8.33 4.34 -8.66 3.68 -9 3 C-8.01 2.67 -7.02 2.34 -6 2 C-6 2.66 -6 3.32 -6 4 C-2.27385847 2.88145414 -2.27385847 2.88145414 0 0 Z " fill="#EB5C0E" transform="translate(563,687)" data-index="12" style="visibility: visible;"></path>
<path d="M0 0 C0.33 0.66 0.66 1.32 1 2 C-0.43359375 4.8203125 -0.43359375 4.8203125 -2.4375 8.125 C-3.09621094 9.22070312 -3.75492188 10.31640625 -4.43359375 11.4453125 C-4.95050781 12.28835938 -5.46742188 13.13140625 -6 14 C-7.11450049 10.65649854 -6.91669067 9.33342063 -6 6 C-5.34 5.01 -4.68 4.02 -4 3 C-4 3.66 -4 4.32 -4 5 C-3.34 5 -2.68 5 -2 5 C-1.34 3.35 -0.68 1.7 0 0 Z " fill="#EB5C0F" transform="translate(704,637)" data-index="13" style="visibility: visible;"></path>
<path d="M0 0 C2.4375 0.375 2.4375 0.375 5 1 C5.33 1.66 5.66 2.32 6 3 C5.01 3.495 5.01 3.495 4 4 C4.66 4.66 5.32 5.32 6 6 C4.1875 7.0625 4.1875 7.0625 2 8 C1.01 7.67 0.02 7.34 -1 7 C-0.34 6.67 0.32 6.34 1 6 C0.835 5.195625 0.67 4.39125 0.5 3.5625 C0 1 0 1 0 0 Z " fill="#E95F11" transform="translate(531,449)" data-index="14" style="visibility: visible;"></path>
<path d="M0 0 C2 1 2 1 3.1875 3.8125 C3.96421451 6.85961076 4.10096399 8.13749363 3 11 C2.67 9.35 2.34 7.7 2 6 C1.34 7.32 0.68 8.64 0 10 C-0.66 9.01 -1.32 8.02 -2 7 C-1.67 6.34 -1.34 5.68 -1 5 C-0.34 5 0.32 5 1 5 C0.67 3.35 0.34 1.7 0 0 Z " fill="#E95D10" transform="translate(627,536)" data-index="15" style="visibility: visible;"></path>
<path d="M0 0 C1.50433594 0.29197266 1.50433594 0.29197266 3.0390625 0.58984375 C4.19535156 0.82380859 4.19535156 0.82380859 5.375 1.0625 C5.375 1.3925 5.375 1.7225 5.375 2.0625 C1.3222484 3.04498524 -2.46361737 3.14409574 -6.625 3.0625 C-6.955 2.0725 -7.285 1.0825 -7.625 0.0625 C-4.81015955 -1.34492022 -3.05563887 -0.60402164 0 0 Z " fill="#E9590E" transform="translate(442.625,744.9375)" data-index="16" style="visibility: visible;"></path>
<path d="M0 0 C0.33 0.66 0.66 1.32 1 2 C3.52733235 2.65555119 3.52733235 2.65555119 6 3 C5 5 5 5 3.15234375 5.6328125 C2.05599609 5.87644531 2.05599609 5.87644531 0.9375 6.125 C0.20402344 6.29257812 -0.52945313 6.46015625 -1.28515625 6.6328125 C-1.85105469 6.75398437 -2.41695312 6.87515625 -3 7 C-1.125 2.25 -1.125 2.25 0 0 Z " fill="#F8E8D9" transform="translate(701,644)" data-index="17" style="visibility: visible;"></path>
<path d="M0 0 C2 1 2 1 2.625 2.5625 C3.17248182 6.12113186 3.17449117 9.3938492 3 13 C2.34 13.66 1.68 14.32 1 15 C-0.32286246 10.03926578 -0.08893197 5.08888488 0 0 Z " fill="#EC5E11" transform="translate(636,563)" data-index="18" style="visibility: visible;"></path>
<path d="M0 0 C2.97 0.495 2.97 0.495 6 1 C5.2884375 1.680625 5.2884375 1.680625 4.5625 2.375 C2.90972192 3.93258204 2.90972192 3.93258204 2 6 C-0.475 5.01 -0.475 5.01 -3 4 C-2.34 3.67 -1.68 3.34 -1 3 C-0.67 2.01 -0.34 1.02 0 0 Z " fill="#FAF8F3" transform="translate(567,694)" data-index="19" style="visibility: visible;"></path>
<path d="M0 0 C0.66 0 1.32 0 2 0 C2 0.66 2 1.32 2 2 C2.66 2.33 3.32 2.66 4 3 C3.13375 3.37125 3.13375 3.37125 2.25 3.75 C-0.3002997 5.16683317 -2.01785701 6.87627537 -4 9 C-3.4739075 5.21213403 -2.61896089 2.82847776 0 0 Z " fill="#EA5E10" transform="translate(674,684)" data-index="20" style="visibility: visible;"></path>
<path d="M0 0 C2.97 0.33 5.94 0.66 9 1 C9 1.66 9 2.32 9 3 C8.01 3 7.02 3 6 3 C6 3.66 6 4.32 6 5 C5.34 5 4.68 5 4 5 C4 4.34 4 3.68 4 3 C2.02 3 0.04 3 -2 3 C-1.34 2.01 -0.68 1.02 0 0 Z " fill="#EC7123" transform="translate(307,282)" data-index="21" style="visibility: visible;"></path>
<path d="M0 0 C0.103125 0.61875 0.20625 1.2375 0.3125 1.875 C0.87525373 4.36526484 0.87525373 4.36526484 4 6 C4.66 6.66 5.32 7.32 6 8 C4.51882199 7.71872579 3.04006751 7.42466268 1.5625 7.125 C0.73878906 6.96257813 -0.08492188 6.80015625 -0.93359375 6.6328125 C-1.61550781 6.42398438 -2.29742187 6.21515625 -3 6 C-3.33 5.34 -3.66 4.68 -4 4 C-3.34 4 -2.68 4 -2 4 C-1.34 2.68 -0.68 1.36 0 0 Z " fill="#EB5C0F" transform="translate(486,690)" data-index="22" style="visibility: visible;"></path>
<path d="M0 0 C0 0.66 0 1.32 0 2 C2.97 2.33 5.94 2.66 9 3 C9 3.33 9 3.66 9 4 C7.25034642 4.05429959 5.50020213 4.09292823 3.75 4.125 C2.77546875 4.14820313 1.8009375 4.17140625 0.796875 4.1953125 C-2.0196498 3.99862781 -3.60949036 3.44568916 -6 2 C-2.25 0 -2.25 0 0 0 Z " fill="#F9FAF7" transform="translate(415,650)" data-index="23" style="visibility: visible;"></path>
<path d="M0 0 C2.97 0.495 2.97 0.495 6 1 C5.67 1.99 5.34 2.98 5 4 C3.0625 4.75 3.0625 4.75 1 5 C0.34 4.67 -0.32 4.34 -1 4 C-0.67 2.68 -0.34 1.36 0 0 Z " fill="#F9EEE2" transform="translate(515,707)" data-index="24" style="visibility: visible;"></path>
<path d="M0 0 C0.66 0.66 1.32 1.32 2 2 C-1.07617188 2.29296875 -1.07617188 2.29296875 -4.15234375 2.5859375 C-4.76207031 2.72257812 -5.37179688 2.85921875 -6 3 C-6.33 3.66 -6.66 4.32 -7 5 C-7.66 4.67 -8.32 4.34 -9 4 C-9 3.34 -9 2.68 -9 2 C-5.54754176 -0.30163882 -4.05261287 -0.34490322 0 0 Z " fill="#EB7428" transform="translate(252,287)" data-index="25" style="visibility: visible;"></path>
<path d="M0 0 C5.15171623 -0.09038099 9.91913204 0.15318867 15 1 C15 1.33 15 1.66 15 2 C13.72125 2.144375 12.4425 2.28875 11.125 2.4375 C8.74307106 2.70642746 7.15547309 2.92226346 5 4 C5 3.01 5 2.02 5 1 C3.35 1 1.7 1 0 1 C0 0.67 0 0.34 0 0 Z " fill="#EA5207" transform="translate(496,665)" data-index="26" style="visibility: visible;"></path>
<path d="M0 0 C0 0.99 0 1.98 0 3 C-3.63 2.67 -7.26 2.34 -11 2 C-11 1.67 -11 1.34 -11 1 C-7.27569643 0.30710631 -3.78916254 -0.11144596 0 0 Z " fill="#F8EFE3" transform="translate(486,660)" data-index="27" style="visibility: visible;"></path>
<path d="M0 0 C0.433125 0.495 0.86625 0.99 1.3125 1.5 C2.99740483 3.33218192 2.99740483 3.33218192 6 3 C5.34 4.98 4.68 6.96 4 9 C1.49701566 6.06171403 0.53069061 3.82097239 0 0 Z " fill="#E95C0F" transform="translate(600,560)" data-index="28" style="visibility: visible;"></path>
<path d="M0 0 C3.91402949 1.26941497 5.79072873 2.51167694 8 6 C5.525 5.01 5.525 5.01 3 4 C2.67 4.66 2.34 5.32 2 6 C0 3 0 3 0 0 Z " fill="#E6520A" transform="translate(498,545)" data-index="29" style="visibility: visible;"></path>
<path d="M0 0 C3.48331435 3.01887244 4.79157144 5.56909529 6 10 C5.01 10.495 5.01 10.495 4 11 C3.32591692 9.73308493 2.66099503 8.46129251 2 7.1875 C1.62875 6.47980469 1.2575 5.77210938 0.875 5.04296875 C0 3 0 3 0 0 Z " fill="#F7EADF" transform="translate(574,318)" data-index="30" style="visibility: visible;"></path>
<path d="M0 0 C1.9375 0.3125 1.9375 0.3125 4 1 C4.33 1.99 4.66 2.98 5 4 C2.69 4 0.38 4 -2 4 C-1.34 2.68 -0.68 1.36 0 0 Z " fill="#F7E5D3" transform="translate(529,665)" data-index="31" style="visibility: visible;"></path>
<path d="M0 0 C0.99 0.33 1.98 0.66 3 1 C3 2.98 3 4.96 3 7 C2.01 6.34 1.02 5.68 0 5 C0 4.34 0 3.68 0 3 C-0.66 2.34 -1.32 1.68 -2 1 C-1.34 0.67 -0.68 0.34 0 0 Z " fill="#EA600E" transform="translate(700,650)" data-index="32" style="visibility: visible;"></path>
</svg><style>@media (prefers-color-scheme: light) { :root { filter: none; } }
@media (prefers-color-scheme: dark) { :root { filter: none; } }
</style></svg>